<svg version="1.1" id="Layer_1" xmlns="http://www.w3.org/2000/svg" xmlns:xlink="http://www.w3.org/1999/xlink" x="0px" y="0px"
	 width="100%" viewBox="0 0 1920 1080" enable-background="new 0 0 1920 1080" xml:space="preserve">
<path fill="#FFFFFF" opacity="1.000000" stroke="none" 
	d="
M1114.000000,1081.000000 
	C742.666748,1081.000000 371.833466,1081.000000 1.000149,1081.000000 
	C1.000100,721.000122 1.000100,361.000275 1.000050,1.000294 
	C640.999756,1.000196 1280.999512,1.000196 1920.999512,1.000098 
	C1920.999634,360.999664 1920.999634,720.999329 1920.999756,1080.999512 
	C1652.166626,1081.000000 1383.333374,1081.000000 1114.000000,1081.000000 
M1103.291748,266.317505 
	C1099.971802,264.744995 1096.651978,263.172485 1092.711426,261.120636 
	C1087.060669,260.672821 1081.409790,260.225037 1075.042847,259.720459 
	C1074.775146,259.382568 1073.863525,258.231964 1073.002197,257.024719 
	C1073.002197,257.024719 1072.928101,257.040466 1072.786621,256.371460 
	C1072.028687,255.296265 1071.263306,254.226196 1070.513916,253.145111 
	C1064.495117,244.462570 1055.576294,244.779343 1049.025513,252.394165 
	C1045.970825,255.945023 1043.584595,260.071045 1040.984009,263.965149 
	C1040.984009,263.965149 1040.933105,263.887146 1040.313477,264.120972 
	C1039.501465,264.719208 1038.689453,265.317444 1037.515869,265.947662 
	C1037.515869,265.947662 1037.153687,265.920380 1036.819702,265.274658 
	C1035.882202,265.216614 1034.944580,265.158569 1033.605225,264.968933 
	C1033.605225,264.968933 1033.186523,264.909424 1032.974365,264.265961 
	C1019.559387,251.600815 1010.242798,251.683197 998.485229,264.793182 
	C992.527710,271.436005 986.828430,278.310455 980.323669,285.121277 
	C979.870300,285.194611 979.416870,285.267975 978.548828,284.745667 
	C972.374695,282.788757 966.200623,280.831818 959.696289,278.307343 
	C953.951477,268.736542 944.841736,269.549164 936.200928,272.820435 
	C936.200928,272.820435 936.027405,273.000580 935.324402,273.092194 
	C929.569397,277.437683 923.814392,281.783203 917.549500,286.186829 
	C917.363586,286.462250 917.177734,286.737701 916.287903,286.981537 
	C912.550110,282.862640 908.839478,278.718689 905.067810,274.631042 
	C900.151123,269.302429 895.559326,263.591095 890.126953,258.846893 
	C885.561707,254.860046 880.060974,255.889633 876.048828,260.527557 
	C873.796509,263.131165 871.981079,266.112701 869.224243,269.284424 
	C869.156189,269.799286 869.088135,270.314148 869.037109,270.888550 
	C869.037109,270.888550 868.977722,270.902100 870.302307,270.272003 
	C870.178467,269.799011 870.054626,269.326019 869.996521,268.514709 
	C866.883240,265.357513 864.004578,261.917114 860.607727,259.102081 
	C853.543579,253.247849 846.697449,253.332916 839.503601,259.061981 
	C837.448669,260.698486 835.848572,262.923767 833.740845,264.471924 
	C831.314514,266.254059 828.556763,267.584900 825.326477,268.811646 
	C819.538818,265.741913 813.751160,262.672211 807.211060,259.203400 
	C807.211060,455.253571 807.211060,649.915039 807.211060,844.662903 
	C909.587891,844.662903 1011.755249,844.662903 1114.484253,844.662903 
	C1114.484253,647.299255 1114.484253,450.301025 1114.484253,253.302811 
	C1114.143921,253.156799 1113.803589,253.010788 1113.463257,252.864777 
	C1110.616699,256.897736 1107.770142,260.930695 1104.996948,264.979980 
	C1104.996948,264.979980 1104.957397,264.916168 1104.475464,265.174591 
	C1104.331055,265.497162 1104.186646,265.819702 1103.291748,266.317505 
z"/>
<path fill="#601C8D" opacity="1.000000" stroke="none" 
	d="
M1033.186523,264.909424 
	C1033.186523,264.909424 1033.605225,264.968933 1034.043579,265.278442 
	C1035.372559,265.698761 1036.263062,265.809570 1037.153687,265.920380 
	C1037.153687,265.920380 1037.515869,265.947662 1038.065552,265.950989 
	C1039.387817,265.265259 1040.160522,264.576202 1040.933105,263.887146 
	C1040.933105,263.887146 1040.984009,263.965149 1041.295166,263.976135 
	C1043.484863,264.433502 1044.874023,264.501495 1045.588013,261.995117 
	C1047.264526,256.110077 1053.062622,253.766708 1057.072144,249.978333 
	C1058.178467,248.932892 1062.191650,250.229523 1064.452271,251.320023 
	C1067.490479,252.785599 1070.121948,255.093887 1072.928101,257.040466 
	C1072.928101,257.040466 1073.002197,257.024719 1072.983643,257.422852 
	C1073.981934,259.536133 1074.998535,261.251343 1076.203613,263.248749 
	C1077.987915,265.742889 1079.396729,268.125488 1081.222412,270.128082 
	C1084.211548,273.407043 1086.191650,278.285767 1091.791016,277.943848 
	C1095.679932,277.706390 1100.083496,273.272552 1101.384399,268.942871 
	C1102.513916,268.237122 1103.314819,267.558411 1104.353271,266.723511 
	C1104.713013,266.016968 1104.835205,265.466583 1104.957397,264.916168 
	C1104.957397,264.916168 1104.996948,264.979980 1105.338379,264.981842 
	C1107.877930,263.519836 1110.075928,262.055939 1113.018188,260.096405 
	C1113.018188,262.515015 1113.066772,264.287415 1113.010742,266.056519 
	C1112.354492,286.804260 1111.122559,307.550995 1111.103027,328.298981 
	C1110.945435,496.117279 1111.014526,663.935791 1111.015625,831.754272 
	C1111.015625,833.087402 1110.932739,834.429565 1111.054443,835.752258 
	C1111.719604,842.981262 1111.737549,843.001770 1104.273560,843.002380 
	C1008.282043,843.010498 912.290588,843.020203 816.299072,842.999573 
	C808.301697,842.997803 808.995789,843.915649 808.995300,835.836060 
	C808.984863,651.019104 808.993652,466.202118 808.953735,281.385132 
	C808.952698,276.591705 808.365356,271.800629 808.234680,267.003479 
	C808.203247,265.849365 808.904968,264.675262 809.401733,263.087982 
	C815.302979,265.882721 820.675415,268.427032 826.442505,270.975037 
	C828.839539,270.345215 830.845520,269.722900 832.843323,269.075195 
	C834.903259,268.407318 837.428650,266.602783 838.922791,267.239044 
	C843.632996,269.244904 848.278259,271.743622 852.320618,274.864990 
	C855.321350,277.181946 857.344482,280.764832 860.240173,284.320557 
	C862.012695,281.566193 863.599182,279.154053 865.130188,276.707245 
	C866.757751,274.106262 868.332886,271.472504 869.930847,268.853027 
	C870.054626,269.326019 870.178467,269.799011 869.786255,270.797241 
	C869.558411,271.379517 869.846558,271.436554 870.134705,271.493591 
	C869.763184,271.272064 869.391663,271.050537 869.020142,270.829041 
	C869.088135,270.314148 869.156189,269.799286 869.937988,269.397888 
	C871.934082,268.386292 873.547119,267.474426 874.435913,266.095734 
	C876.972961,262.160370 880.204285,259.499939 885.014832,260.792816 
	C890.193787,262.184723 894.364014,265.509369 897.894775,269.472900 
	C902.464478,274.602875 905.317505,280.939575 909.999451,286.154205 
	C912.679993,289.139557 914.187927,289.124268 917.336914,288.160828 
	C919.019836,288.910736 920.362671,290.021362 921.712891,290.030304 
	C924.103149,290.046143 927.325439,290.243103 928.741699,288.865509 
	C933.826111,283.919800 938.300659,278.347076 943.451904,273.006653 
	C947.957214,273.072449 952.589172,271.764526 954.296753,277.454865 
	C954.403259,277.809662 955.455200,277.880707 956.071655,278.351135 
	C956.355103,279.041412 956.634094,279.464355 957.238037,280.043579 
	C958.712402,280.464691 959.861877,280.729523 961.281372,281.187195 
	C963.699585,283.046326 965.644897,285.172852 968.058533,286.237213 
	C970.089539,287.132874 972.665344,286.792969 974.858887,287.053864 
	C974.668091,287.195312 974.618408,287.282898 974.568787,287.370483 
	C974.712524,287.246979 974.856262,287.123474 975.359375,287.006073 
	C976.800293,286.455231 977.881897,285.898254 978.963501,285.341309 
	C979.416870,285.267975 979.870300,285.194611 980.668945,285.465820 
	C984.366150,290.069122 988.223389,292.860199 994.179138,291.898376 
	C997.128601,291.422028 1000.923523,291.077789 1003.183533,292.502228 
	C1007.845276,295.440399 1008.838257,292.111389 1010.676575,289.481354 
	C1015.355652,282.787323 1019.788879,275.888611 1024.931030,269.568604 
	C1026.787476,267.286987 1030.384033,266.421265 1033.186523,264.909424 
z"/>
<path fill="#532870" opacity="1.000000" stroke="none" 
	d="
M826.047852,270.971344 
	C820.675415,268.427032 815.302979,265.882721 809.401733,263.087982 
	C808.904968,264.675262 808.203247,265.849365 808.234680,267.003479 
	C808.365356,271.800629 808.952698,276.591705 808.953735,281.385132 
	C808.993652,466.202118 808.984863,651.019104 808.995300,835.836060 
	C808.995789,843.915649 808.301697,842.997803 816.299072,842.999573 
	C912.290588,843.020203 1008.282043,843.010498 1104.273560,843.002380 
	C1111.737549,843.001770 1111.719604,842.981262 1111.054443,835.752258 
	C1110.932739,834.429565 1111.015625,833.087402 1111.015625,831.754272 
	C1111.014526,663.935791 1110.945435,496.117279 1111.103027,328.298981 
	C1111.122559,307.550995 1112.354492,286.804260 1113.010742,266.056519 
	C1113.066772,264.287415 1113.018188,262.515015 1113.018188,260.096405 
	C1110.075928,262.055939 1107.877930,263.519836 1105.301758,264.973694 
	C1107.770142,260.930695 1110.616699,256.897736 1113.463257,252.864777 
	C1113.803589,253.010788 1114.143921,253.156799 1114.484253,253.302811 
	C1114.484253,450.301025 1114.484253,647.299255 1114.484253,844.662903 
	C1011.755249,844.662903 909.587891,844.662903 807.211060,844.662903 
	C807.211060,649.915039 807.211060,455.253571 807.211060,259.203400 
	C813.751160,262.672211 819.538818,265.741913 825.666138,269.270935 
	C826.019836,270.143951 826.033813,270.557648 826.047852,270.971344 
z"/>
<path fill="#703597" opacity="1.000000" stroke="none" 
	d="
M1033.080444,264.587708 
	C1030.384033,266.421265 1026.787476,267.286987 1024.931030,269.568604 
	C1019.788879,275.888611 1015.355652,282.787323 1010.676575,289.481354 
	C1008.838257,292.111389 1007.845276,295.440399 1003.183533,292.502228 
	C1000.923523,291.077789 997.128601,291.422028 994.179138,291.898376 
	C988.223389,292.860199 984.366150,290.069122 981.013306,285.445251 
	C986.828430,278.310455 992.527710,271.436005 998.485229,264.793182 
	C1010.242798,251.683197 1019.559387,251.600815 1033.080444,264.587708 
z"/>
<path fill="#703597" opacity="1.000000" stroke="none" 
	d="
M826.442505,270.975037 
	C826.033813,270.557648 826.019836,270.143951 825.974365,269.421021 
	C828.556763,267.584900 831.314514,266.254059 833.740845,264.471924 
	C835.848572,262.923767 837.448669,260.698486 839.503601,259.061981 
	C846.697449,253.332916 853.543579,253.247849 860.607727,259.102081 
	C864.004578,261.917114 866.883240,265.357513 869.963684,268.683868 
	C868.332886,271.472504 866.757751,274.106262 865.130188,276.707245 
	C863.599182,279.154053 862.012695,281.566193 860.240173,284.320557 
	C857.344482,280.764832 855.321350,277.181946 852.320618,274.864990 
	C848.278259,271.743622 843.632996,269.244904 838.922791,267.239044 
	C837.428650,266.602783 834.903259,268.407318 832.843323,269.075195 
	C830.845520,269.722900 828.839539,270.345215 826.442505,270.975037 
z"/>
<path fill="#5D2F7B" opacity="1.000000" stroke="none" 
	d="
M917.000244,288.025299 
	C914.187927,289.124268 912.679993,289.139557 909.999451,286.154205 
	C905.317505,280.939575 902.464478,274.602875 897.894775,269.472900 
	C894.364014,265.509369 890.193787,262.184723 885.014832,260.792816 
	C880.204285,259.499939 876.972961,262.160370 874.435913,266.095734 
	C873.547119,267.474426 871.934082,268.386292 870.310303,269.217651 
	C871.981079,266.112701 873.796509,263.131165 876.048828,260.527557 
	C880.060974,255.889633 885.561707,254.860046 890.126953,258.846893 
	C895.559326,263.591095 900.151123,269.302429 905.067810,274.631042 
	C908.839478,278.718689 912.550110,282.862640 916.636108,287.250397 
	C916.989563,287.687927 916.994873,287.856628 917.000244,288.025299 
z"/>
<path fill="#703597" opacity="1.000000" stroke="none" 
	d="
M917.336914,288.160828 
	C916.994873,287.856628 916.989563,287.687927 916.988098,287.266205 
	C917.177734,286.737701 917.363586,286.462250 918.025024,286.329895 
	C924.028564,283.052216 929.601196,279.699432 935.030029,276.127930 
	C935.740662,275.660370 935.713074,274.070587 936.027405,273.000580 
	C936.027405,273.000580 936.200928,272.820435 936.728516,272.886841 
	C939.172607,272.972595 941.089172,272.991974 943.005737,273.011353 
	C938.300659,278.347076 933.826111,283.919800 928.741699,288.865509 
	C927.325439,290.243103 924.103149,290.046143 921.712891,290.030304 
	C920.362671,290.021362 919.019836,288.910736 917.336914,288.160828 
z"/>
<path fill="#5D2F7B" opacity="1.000000" stroke="none" 
	d="
M1072.857422,256.705933 
	C1070.121948,255.093887 1067.490479,252.785599 1064.452271,251.320023 
	C1062.191650,250.229523 1058.178467,248.932892 1057.072144,249.978333 
	C1053.062622,253.766708 1047.264526,256.110077 1045.588013,261.995117 
	C1044.874023,264.501495 1043.484863,264.433502 1041.250977,263.961731 
	C1043.584595,260.071045 1045.970825,255.945023 1049.025513,252.394165 
	C1055.576294,244.779343 1064.495117,244.462570 1070.513916,253.145111 
	C1071.263306,254.226196 1072.028687,255.296265 1072.857422,256.705933 
z"/>
<path fill="#703597" opacity="1.000000" stroke="none" 
	d="
M975.359375,287.006104 
	C972.665344,286.792969 970.089539,287.132874 968.058533,286.237213 
	C965.644897,285.172852 963.699585,283.046326 961.165405,280.917908 
	C960.528503,279.928833 960.277466,279.401886 960.026489,278.874908 
	C966.200623,280.831818 972.374695,282.788757 978.756165,285.043488 
	C977.881897,285.898254 976.800293,286.455231 975.359375,287.006104 
z"/>
<path fill="#5D2F7B" opacity="1.000000" stroke="none" 
	d="
M959.861389,278.591125 
	C960.277466,279.401886 960.528503,279.928833 960.895386,280.725098 
	C959.861877,280.729523 958.712402,280.464691 957.232910,279.777039 
	C956.624390,278.930695 956.345825,278.507233 956.067261,278.083771 
	C955.455200,277.880707 954.403259,277.809662 954.296753,277.454865 
	C952.589172,271.764526 947.957214,273.072449 943.451904,273.006653 
	C941.089172,272.991974 939.172607,272.972595 936.839355,272.944794 
	C944.841736,269.549164 953.951477,268.736542 959.861389,278.591125 
z"/>
<path fill="#5D2F7B" opacity="1.000000" stroke="none" 
	d="
M935.675903,273.046387 
	C935.713074,274.070587 935.740662,275.660370 935.030029,276.127930 
	C929.601196,279.699432 924.028564,283.052216 918.280029,286.300842 
	C923.814392,281.783203 929.569397,277.437683 935.675903,273.046387 
z"/>
<path fill="#5D2F7B" opacity="1.000000" stroke="none" 
	d="
M1076.015259,262.966553 
	C1074.998535,261.251343 1073.981934,259.536133 1072.958496,257.451172 
	C1073.863525,258.231964 1074.775146,259.382568 1075.042847,259.720459 
	C1081.409790,260.225037 1087.060669,260.672821 1092.933105,261.468933 
	C1093.154785,261.817200 1092.973022,262.029724 1092.552368,262.020203 
	C1086.759521,262.329285 1081.387451,262.647919 1076.015259,262.966553 
z"/>
<path fill="#5D2F7B" opacity="1.000000" stroke="none" 
	d="
M1104.115601,266.879700 
	C1103.314819,267.558411 1102.513916,268.237122 1101.316772,268.598511 
	C1098.271240,266.197388 1095.622192,264.113556 1092.973022,262.029724 
	C1092.973022,262.029724 1093.154785,261.817200 1093.243408,261.708557 
	C1096.651978,263.172485 1099.971802,264.744995 1103.682373,266.414551 
	C1104.072998,266.511566 1104.115601,266.879700 1104.115601,266.879700 
z"/>
<path fill="#5D2F7B" opacity="1.000000" stroke="none" 
	d="
M1040.623291,264.004059 
	C1040.160522,264.576202 1039.387817,265.265259 1038.246338,265.934998 
	C1038.689453,265.317444 1039.501465,264.719208 1040.623291,264.004059 
z"/>
<path fill="#703597" opacity="1.000000" stroke="none" 
	d="
M1036.986694,265.597534 
	C1036.263062,265.809570 1035.372559,265.698761 1034.244507,265.344238 
	C1034.944580,265.158569 1035.882202,265.216614 1036.986694,265.597534 
z"/>
<path fill="#5D2F7B" opacity="1.000000" stroke="none" 
	d="
M869.028625,270.858795 
	C869.391663,271.050537 869.763184,271.272064 870.134705,271.493591 
	C869.846558,271.436554 869.558411,271.379517 869.124023,271.112305 
	C868.977722,270.902100 869.037109,270.888550 869.028625,270.858795 
z"/>
<path fill="#532870" opacity="1.000000" stroke="none" 
	d="
M1104.353271,266.723511 
	C1104.115601,266.879700 1104.072998,266.511566 1104.057617,266.326904 
	C1104.186646,265.819702 1104.331055,265.497162 1104.716431,265.045380 
	C1104.835205,265.466583 1104.713013,266.016968 1104.353271,266.723511 
z"/>
<path fill="#703597" opacity="1.000000" stroke="none" 
	d="
M1092.552368,262.020203 
	C1095.622192,264.113556 1098.271240,266.197388 1100.988037,268.625549 
	C1100.083496,273.272552 1095.679932,277.706390 1091.791016,277.943848 
	C1086.191650,278.285767 1084.211548,273.407043 1081.222412,270.128082 
	C1079.396729,268.125488 1077.987915,265.742889 1076.203613,263.248749 
	C1081.387451,262.647919 1086.759521,262.329285 1092.552368,262.020203 
z"/>
<path fill="#703597" opacity="1.000000" stroke="none" 
	d="
M956.071655,278.351135 
	C956.345825,278.507233 956.624390,278.930695 956.908020,279.620728 
	C956.634094,279.464355 956.355103,279.041412 956.071655,278.351135 
z"/>
<path fill="#703597" opacity="1.000000" stroke="none" 
	d="
M974.858887,287.053833 
	C974.856262,287.123474 974.712524,287.246979 974.568787,287.370483 
	C974.618408,287.282898 974.668091,287.195312 974.858887,287.053833 
z"/>
</svg>