<svg version="1.1" id="Layer_1" xmlns="http://www.w3.org/2000/svg" xmlns:xlink="http://www.w3.org/1999/xlink" x="0px" y="0px"
	 width="100%" viewBox="0 0 1920 1080" enable-background="new 0 0 1920 1080" xml:space="preserve">
<path fill="#FFFFFF" opacity="1.000000" stroke="none" 
	d="
M1107.000000,1081.000000 
	C738.000000,1081.000000 369.500000,1081.000000 1.000000,1081.000000 
	C1.000000,721.000000 1.000000,361.000000 1.000000,1.000000 
	C641.000000,1.000000 1281.000000,1.000000 1921.000000,1.000000 
	C1921.000000,361.000000 1921.000000,721.000000 1921.000000,1081.000000 
	C1649.833374,1081.000000 1378.666626,1081.000000 1107.000000,1081.000000 
M807.944092,306.876373 
	C807.922668,307.709045 807.882507,308.541748 807.882446,309.374420 
	C807.876465,483.833344 807.872620,658.292297 807.880005,832.751221 
	C807.880066,834.374939 808.031067,835.998657 808.124878,837.890991 
	C910.467651,837.890991 1012.510071,837.890991 1114.815918,837.890991 
	C1114.815918,654.792114 1114.815918,471.894257 1115.291504,288.483337 
	C1115.119507,286.606079 1114.947510,284.728790 1114.776611,282.085999 
	C1114.687378,280.817657 1114.598145,279.549316 1114.812744,277.345703 
	C1114.812744,271.454285 1114.812744,265.562836 1114.812744,259.671417 
	C1114.295410,259.467255 1113.778076,259.263062 1113.260742,259.058899 
	C1110.777466,262.250610 1108.135986,265.334137 1105.859619,268.667175 
	C1103.935547,271.484467 1102.294189,272.401459 1099.061279,270.174042 
	C1093.898438,266.616821 1087.950928,264.079315 1081.668579,265.560486 
	C1076.674438,266.738007 1074.182129,264.943848 1072.057983,261.028320 
	C1071.273560,259.582275 1070.199951,258.263275 1069.107056,257.019196 
	C1063.623047,250.776489 1056.793579,250.323578 1050.851685,256.165100 
	C1047.912109,259.055145 1045.454346,262.474731 1043.020386,265.830170 
	C1039.810425,270.255432 1035.509033,271.069702 1030.955322,267.813416 
	C1029.737183,266.942383 1028.548218,266.030792 1027.345215,265.138733 
	C1019.395630,259.244232 1011.837952,258.755066 1004.636780,265.289185 
	C997.796082,271.496216 992.102234,278.954773 985.730835,285.699371 
	C983.997131,287.534668 981.207214,290.422302 979.640076,290.011536 
	C972.691589,288.190094 966.011292,285.345428 959.237732,282.860626 
	C959.096252,282.808716 959.004639,282.627594 958.883301,282.513580 
	C951.036438,275.140656 943.177490,274.015564 933.963806,279.844177 
	C927.680054,283.819275 921.966431,288.695465 915.438232,293.005524 
	C914.965332,292.697906 914.492432,292.390259 913.693054,291.461334 
	C911.609680,288.489685 909.710266,285.365814 907.404175,282.578400 
	C902.758911,276.963501 898.303955,271.091888 893.010925,266.137634 
	C886.627991,260.163300 880.642822,261.101532 875.071350,267.873291 
	C873.636841,269.616943 872.238403,271.390259 870.270874,273.836945 
	C868.468018,271.765961 867.323181,269.745453 865.596741,268.607574 
	C861.401794,265.842773 857.209412,262.438782 852.515137,261.217560 
	C845.709229,259.446930 840.639832,264.068542 836.056641,268.621857 
	C829.494507,275.141235 828.712280,275.062073 820.715088,270.824799 
	C817.022705,268.868408 812.829468,267.857422 808.273987,266.203857 
	C808.003906,271.734955 807.602783,276.175446 807.609863,280.615234 
	C807.623413,289.054749 807.870483,297.493866 807.944092,306.876373 
z"/>
<path fill="#F92828" opacity="1.000000" stroke="none" 
	d="
M914.019531,292.082642 
	C914.492432,292.390259 914.965332,292.697906 915.887939,293.390503 
	C923.866882,298.525665 928.177734,297.720306 933.749268,290.662720 
	C936.418274,287.281738 939.072388,283.862854 942.031433,280.743958 
	C945.256958,277.343994 948.979736,277.036499 952.639099,280.247864 
	C956.343323,283.498718 959.929321,286.885986 963.677490,290.084076 
	C964.745911,290.995728 966.135559,291.811646 967.488281,292.053345 
	C970.707642,292.628448 973.990173,292.863678 977.252258,293.183502 
	C984.989014,293.941986 991.739014,300.008728 1000.111206,297.437073 
	C1000.498352,297.318176 1001.083008,297.654755 1001.513306,297.892151 
	C1006.027100,300.382111 1008.329956,297.942627 1010.729492,294.333588 
	C1015.034241,287.859039 1019.498169,281.443512 1024.446411,275.458740 
	C1028.306519,270.790070 1040.618652,269.746338 1044.866699,273.929901 
	C1049.111938,278.110626 1053.038940,277.350769 1057.518677,275.325958 
	C1062.197266,273.211304 1066.893311,271.133087 1071.537964,268.946136 
	C1074.510498,267.546509 1076.409668,268.283905 1078.051025,271.174011 
	C1079.846436,274.335480 1081.885742,277.435333 1084.269775,280.168732 
	C1088.596191,285.129333 1094.086304,285.885712 1097.325439,280.712677 
	C1102.101929,273.084625 1106.974243,274.064392 1113.061157,277.967163 
	C1113.450684,278.216919 1114.022217,278.182922 1114.509033,278.280945 
	C1114.598145,279.549316 1114.687378,280.817657 1114.522339,282.466248 
	C1114.100708,282.871216 1113.933228,282.895935 1113.423584,283.037964 
	C1112.782959,283.528931 1112.216187,283.909790 1112.225952,284.275177 
	C1112.429077,291.859894 1112.697754,299.442871 1112.489502,307.017700 
	C1105.534058,307.003265 1099.042480,306.993744 1092.550903,306.991943 
	C999.006470,306.965698 905.462036,306.940491 811.969604,306.578979 
	C812.912964,305.118744 813.804382,303.994629 815.349182,302.046661 
	C812.481445,302.372467 810.770569,302.566864 808.993286,302.320618 
	C808.974854,296.764893 808.792786,291.632965 809.164978,286.541565 
	C809.359924,283.875427 809.789062,279.691162 811.392151,278.946259 
	C816.545776,276.551392 822.132019,273.324249 828.071838,277.696167 
	C827.525330,279.483215 826.993225,280.930023 826.367493,282.631348 
	C829.001770,282.918396 831.306702,283.169525 834.699463,283.539246 
	C832.667053,280.945068 831.273560,279.166351 830.176025,277.162476 
	C833.047791,273.535553 836.733704,272.003204 840.542358,273.320129 
	C844.621033,274.730377 848.668945,276.888794 851.999878,279.613556 
	C855.229065,282.255066 857.530396,286.030701 860.887939,290.093109 
	C864.412109,284.822113 867.609680,280.039612 870.713623,275.397186 
	C877.860352,282.483734 884.513733,289.174774 891.284668,295.744690 
	C893.687439,298.076080 896.210266,298.902618 898.901428,295.720520 
	C902.177979,291.846252 906.306335,290.351562 911.347778,292.200623 
	C912.120056,292.483856 913.123169,292.137695 914.019531,292.082642 
M823.628967,287.416443 
	C821.388611,290.918030 819.148254,294.419647 816.907898,297.921234 
	C817.303650,298.363312 817.699402,298.805420 818.095215,299.247498 
	C819.393616,298.435669 821.392700,297.904968 821.853333,296.756989 
	C823.030396,293.823090 823.522156,290.614227 823.628967,287.416443 
M846.320801,295.489105 
	C843.678284,292.643372 841.035828,289.797668 837.738159,286.246338 
	C838.249512,294.147003 838.803772,294.727783 846.320801,295.489105 
z"/>
<path fill="#C41E22" opacity="1.000000" stroke="none" 
	d="
M1112.953369,307.026184 
	C1112.697754,299.442871 1112.429077,291.859894 1112.225952,284.275177 
	C1112.216187,283.909790 1112.782959,283.528931 1113.517578,283.435181 
	C1114.241211,285.475494 1114.528564,287.235931 1114.815918,288.996399 
	C1114.815918,471.894257 1114.815918,654.792114 1114.815918,837.890991 
	C1012.510071,837.890991 910.467651,837.890991 808.124878,837.890991 
	C808.031067,835.998657 807.880066,834.374939 807.880005,832.751221 
	C807.872620,658.292297 807.876465,483.833344 807.882446,309.374420 
	C807.882507,308.541748 807.922668,307.709045 808.205566,306.156097 
	C808.664673,304.544281 808.862183,303.652771 809.059692,302.761230 
	C810.770569,302.566864 812.481445,302.372467 815.349182,302.046661 
	C813.804382,303.994629 812.912964,305.118744 811.696289,306.870850 
	C810.914917,314.368500 810.063599,321.237946 810.060486,328.107819 
	C809.986084,492.890778 810.002502,657.673767 810.002563,822.456726 
	C810.002625,835.994019 810.002930,835.998962 823.614746,835.999207 
	C915.919861,836.000732 1008.225037,836.000122 1100.530151,835.999390 
	C1101.863037,835.999390 1103.240967,836.210388 1104.521606,835.949158 
	C1114.121582,833.990906 1113.020142,835.894775 1113.021118,826.866272 
	C1113.038818,659.917297 1113.035034,492.968292 1113.030640,326.019287 
	C1113.030396,319.688263 1112.980225,313.357208 1112.953369,307.026184 
z"/>
<path fill="#F48686" opacity="1.000000" stroke="none" 
	d="
M1114.660889,277.813324 
	C1114.022217,278.182922 1113.450684,278.216919 1113.061157,277.967163 
	C1106.974243,274.064392 1102.101929,273.084625 1097.325439,280.712677 
	C1094.086304,285.885712 1088.596191,285.129333 1084.269775,280.168732 
	C1081.885742,277.435333 1079.846436,274.335480 1078.051025,271.174011 
	C1076.409668,268.283905 1074.510498,267.546509 1071.537964,268.946136 
	C1066.893311,271.133087 1062.197266,273.211304 1057.518677,275.325958 
	C1053.038940,277.350769 1049.111938,278.110626 1044.866699,273.929901 
	C1040.618652,269.746338 1028.306519,270.790070 1024.446411,275.458740 
	C1019.498169,281.443512 1015.034241,287.859039 1010.729492,294.333588 
	C1008.329956,297.942627 1006.027100,300.382111 1001.513306,297.892151 
	C1001.083008,297.654755 1000.498352,297.318176 1000.111206,297.437073 
	C991.739014,300.008728 984.989014,293.941986 977.252258,293.183502 
	C973.990173,292.863678 970.707642,292.628448 967.488281,292.053345 
	C966.135559,291.811646 964.745911,290.995728 963.677490,290.084076 
	C959.929321,286.885986 956.343323,283.498718 952.639099,280.247864 
	C948.979736,277.036499 945.256958,277.343994 942.031433,280.743958 
	C939.072388,283.862854 936.418274,287.281738 933.749268,290.662720 
	C928.177734,297.720306 923.866882,298.525665 916.167725,293.472107 
	C921.966431,288.695465 927.680054,283.819275 933.963806,279.844177 
	C943.177490,274.015564 951.036438,275.140656 958.883301,282.513580 
	C959.004639,282.627594 959.096252,282.808716 959.237732,282.860626 
	C966.011292,285.345428 972.691589,288.190094 979.640076,290.011536 
	C981.207214,290.422302 983.997131,287.534668 985.730835,285.699371 
	C992.102234,278.954773 997.796082,271.496216 1004.636780,265.289185 
	C1011.837952,258.755066 1019.395630,259.244232 1027.345215,265.138733 
	C1028.548218,266.030792 1029.737183,266.942383 1030.955322,267.813416 
	C1035.509033,271.069702 1039.810425,270.255432 1043.020386,265.830170 
	C1045.454346,262.474731 1047.912109,259.055145 1050.851685,256.165100 
	C1056.793579,250.323578 1063.623047,250.776489 1069.107056,257.019196 
	C1070.199951,258.263275 1071.273560,259.582275 1072.057983,261.028320 
	C1074.182129,264.943848 1076.674438,266.738007 1081.668579,265.560486 
	C1087.950928,264.079315 1093.898438,266.616821 1099.061279,270.174042 
	C1102.294189,272.401459 1103.935547,271.484467 1105.859619,268.667175 
	C1108.135986,265.334137 1110.777466,262.250610 1113.260742,259.058899 
	C1113.778076,259.263062 1114.295410,259.467255 1114.812744,259.671417 
	C1114.812744,265.562836 1114.812744,271.454285 1114.660889,277.813324 
z"/>
<path fill="#F48686" opacity="1.000000" stroke="none" 
	d="
M808.993286,302.320618 
	C808.862183,303.652771 808.664673,304.544281 808.243896,305.684509 
	C807.870483,297.493866 807.623413,289.054749 807.609863,280.615234 
	C807.602783,276.175446 808.003906,271.734955 808.273987,266.203857 
	C812.829468,267.857422 817.022705,268.868408 820.715088,270.824799 
	C828.712280,275.062073 829.494507,275.141235 836.056641,268.621857 
	C840.639832,264.068542 845.709229,259.446930 852.515137,261.217560 
	C857.209412,262.438782 861.401794,265.842773 865.596741,268.607574 
	C867.323181,269.745453 868.468018,271.765961 870.270874,273.836945 
	C872.238403,271.390259 873.636841,269.616943 875.071350,267.873291 
	C880.642822,261.101532 886.627991,260.163300 893.010925,266.137634 
	C898.303955,271.091888 902.758911,276.963501 907.404175,282.578400 
	C909.710266,285.365814 911.609680,288.489685 913.856323,291.771973 
	C913.123169,292.137695 912.120056,292.483856 911.347778,292.200623 
	C906.306335,290.351562 902.177979,291.846252 898.901428,295.720520 
	C896.210266,298.902618 893.687439,298.076080 891.284668,295.744690 
	C884.513733,289.174774 877.860352,282.483734 870.713623,275.397186 
	C867.609680,280.039612 864.412109,284.822113 860.887939,290.093109 
	C857.530396,286.030701 855.229065,282.255066 851.999878,279.613556 
	C848.668945,276.888794 844.621033,274.730377 840.542358,273.320129 
	C836.733704,272.003204 833.047791,273.535553 829.883118,277.068542 
	C828.891541,277.251862 828.488892,277.303864 828.086243,277.355896 
	C822.132019,273.324249 816.545776,276.551392 811.392151,278.946259 
	C809.789062,279.691162 809.359924,283.875427 809.164978,286.541565 
	C808.792786,291.632965 808.974854,296.764893 808.993286,302.320618 
z"/>
<path fill="#F48686" opacity="1.000000" stroke="none" 
	d="
M1115.053711,288.739868 
	C1114.528564,287.235931 1114.241211,285.475494 1113.859863,283.317871 
	C1113.933228,282.895935 1114.100708,282.871216 1114.521729,282.848999 
	C1114.947510,284.728790 1115.119507,286.606079 1115.053711,288.739868 
z"/>
<path fill="#FA0001" opacity="1.000000" stroke="none" 
	d="
M1112.489502,307.017700 
	C1112.980225,313.357208 1113.030396,319.688263 1113.030640,326.019287 
	C1113.035034,492.968292 1113.038818,659.917297 1113.021118,826.866272 
	C1113.020142,835.894775 1114.121582,833.990906 1104.521606,835.949158 
	C1103.240967,836.210388 1101.863037,835.999390 1100.530151,835.999390 
	C1008.225037,836.000122 915.919861,836.000732 823.614746,835.999207 
	C810.002930,835.998962 810.002625,835.994019 810.002563,822.456726 
	C810.002502,657.673767 809.986084,492.890778 810.060486,328.107819 
	C810.063599,321.237946 810.914917,314.368500 811.644287,307.206970 
	C905.462036,306.940491 999.006470,306.965698 1092.550903,306.991943 
	C1099.042480,306.993744 1105.534058,307.003265 1112.489502,307.017700 
z"/>
<path fill="#C41E22" opacity="1.000000" stroke="none" 
	d="
M823.958496,287.465881 
	C823.522156,290.614227 823.030396,293.823090 821.853333,296.756989 
	C821.392700,297.904968 819.393616,298.435669 818.095215,299.247498 
	C817.699402,298.805420 817.303650,298.363312 816.907898,297.921234 
	C819.148254,294.419647 821.388611,290.918030 823.958496,287.465881 
z"/>
<path fill="#C41E22" opacity="1.000000" stroke="none" 
	d="
M846.032837,295.655762 
	C838.803772,294.727783 838.249512,294.147003 837.738159,286.246338 
	C841.035828,289.797668 843.678284,292.643372 846.032837,295.655762 
z"/>
<path fill="#C41E22" opacity="1.000000" stroke="none" 
	d="
M828.071838,277.696167 
	C828.488892,277.303864 828.891541,277.251862 829.587158,277.293762 
	C831.273560,279.166351 832.667053,280.945068 834.699463,283.539246 
	C831.306702,283.169525 829.001770,282.918396 826.367493,282.631348 
	C826.993225,280.930023 827.525330,279.483215 828.071838,277.696167 
z"/>
</svg>