<?xml version="1.0" encoding="UTF-8"?>
<!-- Uploaded to: SVG Find, www.svgrepo.com, Generator: SVG Find Mixer Tools -->
<svg fill="#000000" width="800px" height="800px" version="1.1" viewBox="144 144 512 512" xmlns="http://www.w3.org/2000/svg">
 <path d="m533.85 539.22c-13.895-16.918-34.266-27.191-56.09-28.457l-40.051-32.047h127.61c21.703 0 39.359-17.656 39.359-39.359 0-4.3438-3.5195-7.8711-7.8711-7.8711h-63.77c-3.6602-17.941-19.555-31.488-38.566-31.488-5.543 0-10.043-4.2656-10.484-9.918-1.4023-18.152-1.5586-36.969-0.56641-55.977 14.184-3.9844 27.078-11.965 36.895-23.371 14.391-16.711 20.766-38.793 17.5-60.598l-11.945-79.594c-0.58203-3.8555-3.8867-6.707-7.7852-6.707h-110.21c-3.8984 0-7.2031 2.8516-7.7852 6.707l-11.941 79.594c-3.2656 21.805 3.1094 43.887 17.5 60.598 9.8164 11.406 22.711 19.391 36.895 23.371 0.99219 19.027 0.83594 37.848-0.56641 55.969-0.44141 5.6562-4.9453 9.9258-10.484 9.9258-19.004 0-34.906 13.547-38.566 31.488h-25.207c-3.6602-17.941-19.555-31.488-38.566-31.488-5.543 0-10.043-4.2656-10.484-9.918-1.4023-18.152-1.5586-36.969-0.56641-55.977 14.184-3.9844 27.078-11.965 36.895-23.371 14.391-16.711 20.766-38.793 17.5-60.598l-11.941-79.594c-0.58203-3.8555-3.8867-6.707-7.7852-6.707h-110.21c-3.8984 0-7.2031 2.8516-7.7852 6.707l-11.941 79.59c-3.2656 21.805 3.1094 43.887 17.5 60.598 9.8164 11.406 22.711 19.391 36.895 23.371 0.99219 19.027 0.83594 37.848-0.56641 55.969-0.44141 5.6602-4.9453 9.9297-10.484 9.9297-19.004 0-34.906 13.547-38.566 31.488h-55.898c-4.3516 0-7.8711 3.5273-7.8711 7.8711 0 21.703 17.656 39.359 39.359 39.359h73.266c-1.2891 2.6133-2.1484 5.4414-2.3633 8.4141-0.46484 6.5586 1.9375 12.988 6.5898 17.633l47.816 47.824c15.16 15.152 35.234 24.805 56.527 27.168l37.266 4.1406c16.863 1.875 31.93 11.043 41.328 25.16l15.734 23.602c1.4648 2.1836 3.9219 3.5 6.5508 3.5h110.89c3.0469 0 5.8086-1.7539 7.1172-4.5117 1.3008-2.7539 0.89844-6.0078-1.0391-8.3594zm-115.64-30.836-11.109-11.957c-3.1797-3.4336-3.0859-8.6992 0.21875-12.004 3.125-3.125 8.0703-3.3945 11.516-0.63672l32.34 25.867zm93.094-328.8 5.582 37.234c-16.949 2.9375-34.352 2.1562-50.734-2.3047-18.254-4.9766-37.52-5.8711-56.316-2.8086l4.8164-32.121zm-79.812 236.16c13.617 0 25.121-10.746 26.184-24.457 1.3633-17.688 1.5664-36 0.73828-54.508 1.5195 0.085937 3.0312 0.24609 4.5664 0.24609 1.5352 0 3.0391-0.15625 4.5586-0.24219-0.82812 18.492-0.62109 36.809 0.74609 54.523 1.0625 13.699 12.562 24.438 26.18 24.438 10.266 0 19.02 6.582 22.27 15.742l-107.52 0.003906c3.2539-9.1641 12.008-15.746 22.273-15.746zm-85.5-236.16 5.582 37.234c-16.949 2.9375-34.344 2.1562-50.734-2.3047-18.254-4.9766-37.52-5.8711-56.316-2.8086l4.8164-32.121zm-79.812 236.16c13.617 0 25.121-10.746 26.184-24.457 1.3633-17.688 1.5664-36 0.73828-54.508 1.5195 0.085937 3.0312 0.24609 4.5664 0.24609 1.5352 0 3.0391-0.15625 4.5586-0.24219-0.82812 18.492-0.62109 36.809 0.74609 54.523 1.0625 13.699 12.562 24.438 26.18 24.438 10.266 0 19.02 6.582 22.27 15.742l-107.52 0.003906c3.2539-9.1641 12.008-15.746 22.273-15.746zm126.04 62.977c-5.0469 9.0117-4.0391 20.461 3.3516 28.426l0.36328 0.38672-14.902-0.57422c-7.9648-0.31641-15.762-2.6758-22.547-6.8555l-34.77-21.383zm97.91 141.7-13.398-20.098c-0.44141-0.66016-0.95312-1.2422-1.4102-1.8906l16.074 4.8242c0.75391 0.22656 1.5117 0.33203 2.2578 0.33203 3.3945 0 6.5195-2.2031 7.543-5.6133 1.2422-4.1641-1.1172-8.5586-5.2812-9.8086l-54.285-16.289c-0.73047-0.21875-1.4648-0.20312-2.1875-0.20312-4.9453-1.668-10.094-2.832-15.391-3.4258l-37.266-4.1406c-17.758-1.9766-34.496-10.02-47.129-22.656l-47.816-47.824c-1.9453-1.9453-2.1016-4.2109-2.0156-5.3828 0.14844-2.0391 1.125-3.832 2.7539-5.0547 2.2891-1.7305 5.3672-1.8594 7.793-0.36328l49.871 30.684c9.0859 5.5898 19.523 8.7617 30.188 9.1719l95.227 3.6602c17.887 0.69141 34.676 9.0195 46.051 22.867l58.445 71.211z"/>
</svg>
